# xmcd
#
# Track frame offsets: 
#        150
#        16812
#        36124
#        51072
#        69338
#        86224
#
# Disc length: 1329 seconds
#
# Revision: 0
# Processed by: cddbd v1.5.2PL0 Copyright (c) Steve Scherf et al.
# Submitted via: ExactAudioCopy v0.99pb5
#
DISCID=43052f06
DTITLE=B*Star - What We Do
DYEAR=2005
DGENRE=Hip Hop/Honky Tonk
TTITLE0=Bootleg Dreams
TTITLE1=Too Far Gone
TTITLE2=Yellowbelly
TTITLE3=Holla Atcha
TTITLE4=Recession
TTITLE5=Someone Like Me
EXTD=
EXTT0=
EXTT1=
EXTT2=
EXTT3=
EXTT4=
EXTT5=
PLAYORDER=
